<svg width="48" height="48" viewBox="0 0 48 48" fill="none" xmlns="http://www.w3.org/2000/svg">
<rect x="2" y="2" width="44" height="44" rx="22" stroke="#A3E635" stroke-width="4"/>
<path d="M12.52 31L16.12 26L12.56 21.08H15.48L17.74 24.38H18.1L20.36 21.08H23.28L19.72 26L23.32 31H20.36L18.1 27.66H17.74L15.48 31H12.52ZM29.92 31.28C28.8667 31.28 27.9333 31.0933 27.12 30.72C26.3067 30.3467 25.67 29.81 25.21 29.11C24.75 28.41 24.52 27.58 24.52 26.62V26.26H27.08V26.54C27.08 27.2867 27.34 27.8833 27.86 28.33C28.38 28.7767 29.0667 29 29.92 29C30.7867 29 31.4567 28.7933 31.93 28.38C32.4033 27.9667 32.64 27.4467 32.64 26.82V26.62C32.64 26.1933 32.5333 25.8467 32.32 25.58C32.1067 25.3133 31.82 25.1167 31.46 24.99C31.1 24.8633 30.6933 24.8 30.24 24.8H27.44V22L31.96 19.6V19.28H24.88V17H34.8V20.4L30.58 22.64V22.96H31.32C31.9467 22.96 32.5567 23.0867 33.15 23.34C33.7433 23.5933 34.2333 23.9833 34.62 24.51C35.0067 25.0367 35.2 25.72 35.2 26.56V26.8C35.2 27.7067 34.98 28.4967 34.54 29.17C34.1 29.8433 33.4833 30.3633 32.69 30.73C31.8967 31.0967 30.9733 31.28 29.92 31.28Z" fill="#A3E635"/>
</svg>
